<?xml version="1.0" encoding="utf-8"?>
<!-- Generator: Adobe Illustrator 16.0.0, SVG Export Plug-In . SVG Version: 6.00 Build 0)  -->
<!DOCTYPE svg PUBLIC "-//W3C//DTD SVG 1.1//EN" "http://www.w3.org/Graphics/SVG/1.1/DTD/svg11.dtd">
<svg version="1.1" id="Layer_1" xmlns="http://www.w3.org/2000/svg" xmlns:xlink="http://www.w3.org/1999/xlink" x="0px" y="0px"
	 width="228.166px" height="48.5px" viewBox="0 0 228.166 48.5" enable-background="new 0 0 228.166 48.5" xml:space="preserve">
<g fill="#ffffff">
	<g>
		<path d="M44.424,38.292V11.538h10.783c3.278,0,5.729,0.727,7.351,2.18s2.434,3.645,2.434,6.574c0,3.363-0.973,5.836-2.92,7.418
			c-1.947,1.582-4.984,2.373-9.11,2.373h-0.15v8.209H44.424z M52.611,24.422c1.647-0.035,2.816-0.36,3.507-0.976
			s1.036-1.644,1.036-3.085c0-1.043-0.316-1.808-0.949-2.294s-1.623-0.729-2.97-0.729h-0.624V24.422z"/>
		<path d="M88.645,14.141v24.15h-7.913v-3.705c-0.533,1.454-1.315,2.521-2.346,3.197c-1.032,0.677-2.38,1.016-4.044,1.016
			c-2.03,0-3.482-0.495-4.355-1.485c-0.874-0.99-1.311-2.684-1.311-5.078V14.141h8.212v15.142c0,1.09,0.116,1.818,0.35,2.182
			c0.233,0.363,0.649,0.545,1.248,0.545c0.666,0,1.156-0.264,1.473-0.79c0.316-0.526,0.474-1.354,0.474-2.482V14.141H88.645z"/>
		<path d="M93.351,30.975c0.932,0.651,1.831,1.142,2.696,1.467c0.865,0.326,1.723,0.489,2.571,0.489
			c0.965,0,1.734-0.176,2.309-0.527c0.574-0.35,0.861-0.827,0.861-1.429c0-0.339-0.083-0.634-0.249-0.884
			c-0.167-0.251-0.408-0.458-0.725-0.621c-0.449-0.213-1.173-0.486-2.171-0.818s-1.723-0.611-2.172-0.837
			c-1.464-0.702-2.488-1.498-3.07-2.389c-0.583-0.89-0.874-2.113-0.874-3.667c0-2.558,0.803-4.552,2.409-5.981
			c1.606-1.43,3.84-2.145,6.703-2.145c1.314,0,2.529,0.173,3.645,0.518c1.114,0.345,2.162,0.868,3.145,1.57v6.169
			c-0.849-0.752-1.744-1.313-2.684-1.684c-0.939-0.37-1.918-0.555-2.933-0.555c-0.833,0-1.519,0.163-2.06,0.489
			c-0.541,0.326-0.811,0.74-0.811,1.242c0,0.752,0.957,1.467,2.871,2.144c0.415,0.15,0.74,0.27,0.974,0.357
			c2.047,0.752,3.453,1.605,4.219,2.558c0.765,0.953,1.147,2.308,1.147,4.063c0,2.695-0.757,4.758-2.271,6.188
			s-3.687,2.145-6.515,2.145c-1.381,0-2.65-0.164-3.807-0.489c-1.157-0.326-2.226-0.821-3.208-1.486V30.975z"/>
		<path d="M113.234,38.292V10.29h8.237v8.895c0.565-1.383,1.349-2.385,2.347-3.006s2.313-0.932,3.943-0.932
			c1.997,0,3.407,0.442,4.23,1.327c0.824,0.885,1.236,2.481,1.236,4.79v16.928h-8.237v-14.15c0-0.996-0.12-1.67-0.362-2.021
			c-0.241-0.352-0.67-0.527-1.285-0.527c-0.666,0-1.145,0.237-1.436,0.712s-0.437,1.245-0.437,2.312v13.676H113.234z"/>
	</g>
	<g>
		<path d="M157.667,36.429c-0.981,0.773-2.159,1.361-3.532,1.766c-1.372,0.404-2.892,0.607-4.555,0.607
			c-3.911,0-6.79-1.193-8.637-3.578s-2.771-6.113-2.771-11.188c0-4.512,0.915-7.805,2.745-9.879
			c1.831-2.074,4.718-3.111,8.662-3.111c1.598,0,3.078,0.19,4.442,0.571s2.579,0.946,3.645,1.696v6.188
			c-1.165-0.867-2.192-1.485-3.082-1.854c-0.891-0.369-1.794-0.554-2.709-0.554c-1.797,0-3.116,0.595-3.956,1.784
			c-0.841,1.189-1.261,3.067-1.261,5.634c0,3.012,0.408,5.106,1.224,6.284c0.814,1.178,2.196,1.768,4.144,1.768
			c0.965,0,1.88-0.17,2.745-0.51s1.83-0.926,2.896-1.758V36.429z"/>
		<path d="M170.636,38.913c-3.711,0-6.394-1.065-8.05-3.197s-2.483-5.611-2.483-10.439c0-4.125,0.836-7.122,2.509-8.99
			c1.672-1.869,4.347-2.803,8.024-2.803s6.361,0.938,8.05,2.812c1.689,1.875,2.534,4.881,2.534,9.019
			c0,4.766-0.841,8.223-2.521,10.373S174.33,38.913,170.636,38.913z M170.686,32.199c0.999,0,1.697-0.455,2.097-1.364
			s0.6-2.542,0.6-4.899c0-2.194-0.196-3.668-0.587-4.42s-1.094-1.128-2.109-1.128c-1.031,0-1.743,0.379-2.134,1.138
			c-0.392,0.759-0.587,2.354-0.587,4.787c0,2.182,0.208,3.708,0.624,4.579C169.005,31.763,169.704,32.199,170.686,32.199z"/>
		<path d="M193.54,12.294c0,0.75-0.366,1.304-1.099,1.661s-1.864,0.536-3.395,0.536c-1.531,0-2.663-0.179-3.395-0.536
			c-0.732-0.357-1.099-0.911-1.099-1.661c0-0.738,0.362-1.283,1.086-1.635s1.859-0.527,3.407-0.527c1.53,0,2.662,0.176,3.395,0.527
			S193.54,11.556,193.54,12.294z M184.903,38.292V15.44c0.599,0.176,1.235,0.308,1.909,0.396s1.436,0.132,2.284,0.132
			c0.732,0,1.443-0.044,2.134-0.132s1.352-0.22,1.984-0.396l0.025,22.852H184.903z"/>
		<path d="M197.798,38.292V14.142h7.962v3.706c0.55-1.467,1.34-2.536,2.372-3.207c1.031-0.67,2.387-1.006,4.068-1.006
			c2.047,0,3.49,0.47,4.33,1.411c0.841,0.94,1.261,2.652,1.261,5.135v18.113h-8.187V23.151c0-1.065-0.121-1.787-0.362-2.163
			c-0.241-0.376-0.67-0.564-1.285-0.564c-0.666,0-1.153,0.257-1.461,0.771c-0.308,0.515-0.462,1.335-0.462,2.464v14.634H197.798z"/>
	</g>
</g>
<g>
	<path fill="none" d="M33.91,26.25l-1.243,1.423c0,0-0.023-4.328-0.286-1.603c-0.262,2.726-1.236,5.056-1.236,5.056l1.659-1.63
		c0,0-1.183,5.503,0.009,3.191c1.192-2.312,1.556-5.356,1.556-5.356l-0.73,1.299L33.91,26.25z"/>
	<path fill="#FF6600" d="M29.028,6.932c-0.908-0.601-3.048-0.905-4.891-1.457c5.174,2.998,8.273,11.149,7.21,20.291
		c-1.105,9.503-6.579,16.931-12.994,18.489c1.233-0.016,2.962,0.116,3.906-0.06c6.334-1.969,11.849-9.395,12.842-17.931
		C35.956,18.912,33.385,10.788,29.028,6.932z M32.813,32.688c-1.191,2.312-0.009-3.191-0.009-3.191l-1.659,1.63
		c0,0,0.974-2.33,1.236-5.056c0.263-2.726,0.286,1.603,0.286,1.603l1.243-1.423l-0.271,2.38l0.73-1.299
		C34.369,27.332,34.005,30.376,32.813,32.688z"/>
	<g>
		<path fill="none" d="M14.089,17.927l-1.633,4.215c3.112,1.099,3.872,6.541,1.697,12.155l2.337,0.825
			C19.567,27.181,18.493,19.481,14.089,17.927z"/>
		<path fill="none" d="M11.755,25.402l-1.027,2.571c1.307,0.462,2.213,2.024,0.479,5.074l1.347,0.635
			C14.656,30.029,13.728,26.557,11.755,25.402z"/>
		<path fill="none" d="M16.923,10.614l-1.681,4.339c5.314,1.876,6.612,11.167,2.897,20.752l2.406,0.85
			C25.188,24.574,23.566,12.959,16.923,10.614z"/>
		<g>
			<path fill="none" d="M14.089,17.927l-1.633,4.215c3.112,1.099,3.872,6.541,1.697,12.155l2.337,0.825
				C19.567,27.181,18.493,19.481,14.089,17.927z"/>
			<path fill="none" d="M16.923,10.614l-1.681,4.339c5.314,1.876,6.612,11.167,2.897,20.752l2.406,0.85
				C25.188,24.574,23.566,12.959,16.923,10.614z"/>
			<path fill="none" d="M11.755,25.402l-1.027,2.571c1.307,0.462,2.213,2.024,0.479,5.074l1.347,0.635
				C14.656,30.029,13.728,26.557,11.755,25.402z"/>
			<path fill="#FF6600" d="M19.592,4.78C12.404,3.973,5.561,12.053,4.308,22.827c-1.252,10.774,3.561,20.161,10.75,20.968
				c7.188,0.807,14.031-7.273,15.283-18.047C31.594,14.975,26.782,5.585,19.592,4.78z M11.755,25.402
				c1.973,1.155,2.901,4.627,0.8,8.28l-1.347-0.635c1.734-3.05,0.828-4.612-0.479-5.074 M14.153,34.297
				c2.175-5.614,1.415-11.057-1.697-12.155l1.633-4.215c4.404,1.554,5.478,9.254,2.401,17.195L14.153,34.297z M20.545,36.554
				l-2.406-0.85c3.714-9.585,2.417-18.876-2.897-20.752l1.681-4.339C23.566,12.959,25.188,24.574,20.545,36.554z"/>
		</g>
	</g>
</g>
<g>
</g>
<g>
</g>
<g>
</g>
<g>
</g>
<g>
</g>
<g>
</g>
<g>
</g>
<g>
</g>
<g>
</g>
<g>
</g>
<g>
</g>
<g>
</g>
<g>
</g>
<g>
</g>
<g>
</g>
</svg>
